<?xml version="1.0" encoding="UTF-8"?><svg xmlns="http://www.w3.org/2000/svg" xmlns:xlink="http://www.w3.org/1999/xlink" contentScriptType="text/ecmascript" width="375" zoomAndPan="magnify" contentStyleType="text/css" viewBox="0 0 375 374.999991" height="374.999991" preserveAspectRatio="xMidYMid meet" version="1.0"><defs><clipPath id="clip-0"><path d="M 16.144531 177 L 191 177 L 191 287.253906 L 16.144531 287.253906 Z M 16.144531 177 " clip-rule="nonzero"/></clipPath><clipPath id="clip-1"><path d="M 184 177 L 358.894531 177 L 358.894531 287.253906 L 184 287.253906 Z M 184 177 " clip-rule="nonzero"/></clipPath><clipPath id="clip-2"><path d="M 144 87.753906 L 231 87.753906 L 231 287 L 144 287 Z M 144 87.753906 " clip-rule="nonzero"/></clipPath><clipPath id="clip-3"><path d="M 112.5 309 L 139 309 L 139 311 L 112.5 311 Z M 112.5 309 " clip-rule="nonzero"/></clipPath><clipPath id="clip-4"><path d="M 236 309 L 262.5 309 L 262.5 311 L 236 311 Z M 236 309 " clip-rule="nonzero"/></clipPath></defs><path fill="rgb(93.728638%, 73.329163%, 76.078796%)" d="M 187.5 0 C 83.945312 0 0 83.945312 0 187.5 C 0 291.054688 83.945312 375 187.5 375 C 291.054688 375 375 291.054688 375 187.5 C 375 83.945312 291.054688 0 187.5 0 Z M 187.5 0 " fill-opacity="1" fill-rule="nonzero"/><path fill="rgb(92.939758%, 22.749329%, 32.939148%)" d="M 139.675781 102.296875 C 139.675781 102.296875 85.066406 223.972656 181.777344 273.878906 C 243.90625 182.84375 139.675781 102.296875 139.675781 102.296875 Z M 139.675781 102.296875 " fill-opacity="1" fill-rule="nonzero"/><path fill="rgb(92.939758%, 22.749329%, 32.939148%)" d="M 238.894531 102.296875 C 238.894531 102.296875 293.503906 223.972656 196.796875 273.878906 C 134.664062 182.84375 238.894531 102.296875 238.894531 102.296875 Z M 238.894531 102.296875 " fill-opacity="1" fill-rule="nonzero"/><path fill="rgb(13.729858%, 12.159729%, 12.548828%)" d="M 136.816406 100.542969 C 132.855469 109.382812 129.957031 118.765625 127.507812 128.113281 C 122.300781 148.019531 119.714844 168.921875 121.589844 189.46875 C 123.128906 206.359375 127.921875 222.902344 136.695312 237.480469 C 146.984375 254.582031 162.578125 267.722656 180.160156 276.878906 C 181.925781 277.796875 183.8125 277.257812 184.914062 275.632812 C 202.125 250.195312 209.132812 220.226562 202.445312 190.058594 C 197.164062 166.257812 184.183594 144.679688 168.714844 126.125 C 160.820312 116.65625 152.046875 107.410156 142.269531 99.839844 C 138.777344 97.132812 133.820312 102.011719 137.359375 104.75 C 146.503906 111.832031 154.695312 120.414062 162.210938 129.15625 C 177.761719 147.25 190.378906 168.496094 195.746094 191.902344 C 202.226562 220.183594 194.984375 248.375 178.914062 272.125 C 180.5 271.707031 182.082031 271.292969 183.667969 270.878906 C 159.617188 258.355469 141.171875 238.492188 133.050781 212.394531 C 126.523438 191.417969 126.796875 168.726562 130.464844 147.238281 C 132.28125 136.589844 134.980469 126.082031 138.402344 115.835938 C 139.421875 112.78125 140.519531 109.75 141.699219 106.753906 C 141.890625 106.273438 142.082031 105.792969 142.277344 105.3125 C 142.410156 104.984375 142.992188 103.597656 142.421875 104.957031 C 142.550781 104.652344 142.679688 104.347656 142.8125 104.046875 C 144.613281 99.992188 138.632812 96.457031 136.796875 100.539062 Z M 136.816406 100.542969 " fill-opacity="1" fill-rule="nonzero"/><path fill="rgb(13.729858%, 12.159729%, 12.548828%)" d="M 236.03125 104.050781 C 236.101562 104.199219 236.164062 104.355469 236.230469 104.507812 C 236.355469 104.792969 236.6875 105.582031 236.167969 104.351562 C 236.304688 104.671875 236.4375 104.992188 236.566406 105.316406 C 237.332031 107.179688 238.046875 109.0625 238.738281 110.953125 C 241.128906 117.507812 243.15625 124.191406 244.890625 130.949219 C 250.007812 150.875 252.324219 171.6875 250.027344 192.195312 C 248.320312 207.402344 243.472656 222.246094 235.367188 235.246094 C 225.691406 250.769531 211.277344 262.5 195.179688 270.882812 C 196.761719 271.296875 198.347656 271.710938 199.929688 272.128906 C 190.804688 258.636719 184.242188 243.777344 181.667969 227.636719 C 179.523438 214.222656 180.757812 200.394531 184.238281 187.320312 C 190.304688 164.527344 203.484375 143.984375 218.988281 126.460938 C 225.847656 118.707031 233.28125 111.105469 241.488281 104.753906 C 245.023438 102.015625 240.070312 97.136719 236.574219 99.84375 C 227.429688 106.925781 219.238281 115.503906 211.722656 124.25 C 196.074219 142.457031 183.195312 163.605469 177.140625 186.996094 C 169.132812 217.933594 176.183594 249.398438 193.933594 275.632812 C 195.035156 277.257812 196.921875 277.796875 198.6875 276.878906 C 222.992188 264.222656 241.914062 244.25 251.160156 218.289062 C 258.773438 196.921875 259.105469 173.609375 256.015625 151.359375 C 253.617188 134.113281 249.171875 116.492188 242.03125 100.542969 C 240.203125 96.46875 234.214844 100.003906 236.035156 104.054688 Z M 236.03125 104.050781 " fill-opacity="1" fill-rule="nonzero"/><path fill="rgb(92.939758%, 22.749329%, 32.939148%)" d="M 20.1875 183.386719 C 20.1875 183.386719 76.632812 316.398438 187.523438 276.328125 C 160.960938 159.921875 20.1875 183.386719 20.1875 183.386719 Z M 20.1875 183.386719 " fill-opacity="1" fill-rule="nonzero"/><path fill="rgb(92.939758%, 22.749329%, 32.939148%)" d="M 354.859375 183.386719 C 354.859375 183.386719 298.410156 316.398438 187.519531 276.328125 C 214.082031 159.921875 354.859375 183.386719 354.859375 183.386719 Z M 354.859375 183.386719 " fill-opacity="1" fill-rule="nonzero"/><g clip-path="url(#clip-0)"><path fill="rgb(13.729858%, 12.159729%, 12.548828%)" d="M 17.1875 185.140625 C 20.53125 193.003906 24.824219 200.535156 29.257812 207.820312 C 39.25 224.242188 51.25 239.632812 65.371094 252.710938 C 80.257812 266.496094 97.820312 277.519531 117.390625 283.207031 C 140.808594 290.015625 165.667969 287.832031 188.441406 279.6875 C 190.28125 279.03125 191.320312 277.367188 190.871094 275.414062 C 185.082031 250.414062 172.703125 227.316406 153.007812 210.570312 C 136.632812 196.648438 116.503906 187.90625 95.691406 183.0625 C 71.171875 177.351562 44.214844 175.925781 19.265625 180.042969 C 19.265625 180.042969 19.261719 180.042969 19.261719 180.042969 C 14.851562 180.773438 16.730469 187.464844 21.109375 186.738281 C 21.648438 186.648438 22.191406 186.574219 22.734375 186.5 C 23.503906 186.394531 21.734375 186.628906 22.820312 186.488281 C 23.167969 186.445312 23.519531 186.402344 23.867188 186.359375 C 24.804688 186.242188 25.738281 186.140625 26.675781 186.042969 C 32.277344 185.457031 37.90625 185.132812 43.535156 184.992188 C 61.015625 184.558594 78.585938 186.085938 95.605469 190.175781 C 114.859375 194.800781 133.441406 203.023438 148.609375 215.917969 C 167.246094 231.765625 178.707031 253.640625 184.171875 277.261719 C 184.980469 275.839844 185.789062 274.414062 186.597656 272.992188 C 161.511719 281.960938 134.9375 283.019531 109.90625 273.359375 C 89.382812 265.4375 71.890625 250.953125 57.441406 234.636719 C 43.675781 219.085938 31.347656 200.832031 23.1875 181.640625 C 21.445312 177.527344 15.464844 181.070312 17.195312 185.144531 Z M 17.1875 185.140625 " fill-opacity="1" fill-rule="nonzero"/></g><g clip-path="url(#clip-1)"><path fill="rgb(13.729858%, 12.159729%, 12.548828%)" d="M 351.855469 181.632812 C 348.515625 189.496094 344.222656 197.027344 339.789062 204.3125 C 329.859375 220.625 317.933594 235.789062 303.800781 248.671875 C 289.832031 261.40625 273.378906 271.53125 255.121094 276.703125 C 233.015625 282.964844 209.882812 280.652344 188.445312 272.988281 C 189.253906 274.410156 190.0625 275.835938 190.871094 277.257812 C 196.625 252.378906 209.007812 229.949219 229.011719 213.777344 C 245.320312 200.59375 265.492188 192.90625 285.863281 188.742188 C 301.523438 185.546875 317.613281 184.535156 333.570312 185.046875 C 338.671875 185.210938 343.769531 185.550781 348.84375 186.089844 C 349.683594 186.175781 350.523438 186.273438 351.359375 186.375 C 351.699219 186.417969 352.039062 186.460938 352.378906 186.503906 C 353.246094 186.617188 351.433594 186.375 352.429688 186.511719 C 352.933594 186.582031 353.433594 186.652344 353.933594 186.734375 C 358.3125 187.460938 360.191406 180.769531 355.777344 180.039062 C 330.988281 175.921875 304.328125 177.421875 279.933594 182.921875 C 259.0625 187.628906 239.085938 196.425781 222.546875 210.136719 C 202.757812 226.542969 190.269531 249.746094 184.378906 274.53125 C 184.308594 274.824219 184.242188 275.117188 184.175781 275.414062 C 183.722656 277.363281 184.761719 279.027344 186.597656 279.683594 C 211.777344 288.6875 238.996094 290.082031 264.367188 281.035156 C 285.5625 273.476562 303.929688 259.566406 319.171875 243.230469 C 334.820312 226.464844 348.839844 206.347656 357.859375 185.140625 C 359.585938 181.078125 353.605469 177.535156 351.855469 181.644531 Z M 351.855469 181.632812 " fill-opacity="1" fill-rule="nonzero"/></g><path fill="rgb(92.939758%, 22.749329%, 32.939148%)" d="M 90.972656 112.078125 C 90.972656 112.078125 72.28125 255.355469 188.1875 276.960938 C 224.238281 163.125 90.972656 112.078125 90.972656 112.078125 Z M 90.972656 112.078125 " fill-opacity="1" fill-rule="nonzero"/><path fill="rgb(92.939758%, 22.749329%, 32.939148%)" d="M 284.925781 112.078125 C 284.925781 112.078125 303.617188 255.355469 187.707031 276.960938 C 151.652344 163.125 284.925781 112.078125 284.925781 112.078125 Z M 284.925781 112.078125 " fill-opacity="1" fill-rule="nonzero"/><path fill="rgb(100%, 100%, 100%)" d="M 90.972656 112.078125 C 90.972656 112.078125 72.28125 255.355469 188.1875 276.960938 C 224.238281 163.125 90.972656 112.078125 90.972656 112.078125 Z M 90.972656 112.078125 " fill-opacity="0.298" fill-rule="nonzero"/><path fill="rgb(100%, 100%, 100%)" d="M 284.925781 112.078125 C 284.925781 112.078125 303.617188 255.355469 187.707031 276.960938 C 151.652344 163.125 284.925781 112.078125 284.925781 112.078125 Z M 284.925781 112.078125 " fill-opacity="0.298" fill-rule="nonzero"/><path fill="rgb(13.729858%, 12.159729%, 12.548828%)" d="M 87.5 113.023438 C 84.289062 137.742188 86.683594 164.25 92.765625 188.285156 C 97.972656 208.871094 107.070312 228.574219 120.988281 244.734375 C 137.398438 263.78125 160.253906 275.644531 184.667969 280.746094 C 185.53125 280.925781 186.398438 281.089844 187.265625 281.253906 C 189.175781 281.617188 190.9375 280.746094 191.535156 278.828125 C 199.503906 253.394531 200.25 226.199219 190.769531 201.066406 C 182.929688 180.273438 169.007812 162.34375 152.574219 147.589844 C 135.046875 131.851562 113.988281 118.15625 91.894531 109.671875 C 87.707031 108.0625 85.910156 114.78125 90.046875 116.371094 C 90.601562 116.582031 91.152344 116.808594 91.699219 117.039062 C 92.414062 117.335938 90.863281 116.679688 91.886719 117.117188 C 92.234375 117.265625 92.582031 117.417969 92.929688 117.570312 C 93.863281 117.976562 94.792969 118.394531 95.71875 118.820312 C 101.226562 121.34375 106.609375 124.136719 111.882812 127.117188 C 128.101562 136.273438 143.253906 147.40625 156.273438 160.757812 C 169.578125 174.398438 180.332031 190.636719 186.144531 208.867188 C 193.253906 231.179688 191.777344 254.828125 184.839844 276.980469 L 189.109375 274.554688 C 164.425781 269.875 141.980469 258.492188 125.46875 239.320312 C 111.835938 223.496094 103.5625 203.683594 98.75 183.539062 C 93.351562 160.945312 91.441406 136.15625 94.441406 113.019531 C 95.027344 108.589844 88.074219 108.648438 87.503906 113.023438 Z M 87.5 113.023438 " fill-opacity="1" fill-rule="nonzero"/><path fill="rgb(13.729858%, 12.159729%, 12.548828%)" d="M 281.453125 113.023438 C 284.632812 137.539062 282.332031 163.792969 276.132812 187.605469 C 271.082031 207.007812 262.472656 225.707031 249.121094 240.824219 C 232.886719 259.207031 210.664062 270.035156 186.785156 274.5625 C 188.207031 275.371094 189.632812 276.179688 191.058594 276.988281 C 183.125 251.667969 182.78125 225.097656 192.84375 200.335938 C 201.007812 180.242188 215.554688 163.214844 231.929688 149.285156 C 243.257812 139.648438 255.808594 131.4375 268.910156 124.425781 C 273.050781 122.210938 277.265625 120.125 281.546875 118.203125 C 282.257812 117.882812 282.964844 117.570312 283.679688 117.265625 C 285.03125 116.679688 283.394531 117.375 284.558594 116.890625 C 284.988281 116.714844 285.414062 116.539062 285.847656 116.371094 C 289.984375 114.785156 288.191406 108.066406 284 109.675781 C 259.0625 119.25 235.347656 135.296875 216.496094 154.039062 C 201.859375 168.589844 190.035156 186.03125 183.484375 205.683594 C 175.558594 229.464844 176.933594 255.117188 184.359375 278.832031 C 184.960938 280.75 186.71875 281.621094 188.632812 281.257812 C 213.453125 276.550781 236.519531 265.082031 253.589844 246.230469 C 267.945312 230.378906 277.1875 210.550781 282.675781 190.03125 C 287.273438 172.863281 289.292969 154.96875 289.496094 137.222656 C 289.589844 129.1875 289.414062 121.035156 288.402344 113.050781 C 288.398438 113.042969 288.398438 113.035156 288.398438 113.027344 C 287.835938 108.65625 280.882812 108.597656 281.457031 113.03125 Z M 281.453125 113.023438 " fill-opacity="1" fill-rule="nonzero"/><path fill="rgb(92.939758%, 22.749329%, 32.939148%)" d="M 187.945312 89.21875 C 187.945312 89.21875 99.070312 203.152344 187.945312 280.625 C 276.820312 200.875 187.945312 89.21875 187.945312 89.21875 Z M 187.945312 89.21875 " fill-opacity="1" fill-rule="nonzero"/><g clip-path="url(#clip-2)"><path fill="rgb(13.729858%, 12.159729%, 12.548828%)" d="M 185.492188 88.964844 C 178.230469 98.292969 172.152344 108.640625 166.714844 119.105469 C 155.371094 140.921875 147.246094 164.707031 145.332031 189.324219 C 144.058594 205.726562 146.09375 222.433594 151.808594 237.882812 C 158.648438 256.382812 170.753906 272.332031 185.492188 285.285156 C 186.96875 286.582031 188.933594 286.617188 190.40625 285.285156 C 214.28125 263.691406 229.359375 235.101562 230.820312 202.730469 C 231.980469 176.910156 224.632812 151.28125 213.847656 128.050781 C 207.496094 114.367188 199.820312 100.816406 190.40625 88.964844 C 187.617188 85.460938 182.738281 90.410156 185.492188 93.878906 C 186.042969 94.566406 185 93.234375 185.402344 93.757812 C 185.835938 94.320312 186.257812 94.886719 186.679688 95.460938 C 188.171875 97.488281 189.609375 99.5625 191.015625 101.652344 C 195.824219 108.816406 200.175781 116.28125 204.125 123.949219 C 215.480469 145.980469 223.367188 170.359375 223.949219 195.285156 C 224.292969 209.890625 221.738281 224.359375 216.332031 237.933594 C 209.777344 254.386719 198.535156 268.578125 185.492188 280.371094 L 190.40625 280.371094 C 177.828125 269.320312 167.410156 256.261719 160.507812 240.949219 C 154.707031 228.082031 152.101562 213.914062 151.925781 199.859375 C 151.617188 174.804688 159.300781 150.046875 170.15625 127.6875 C 174.300781 119.148438 179 110.871094 184.160156 102.910156 C 185.722656 100.503906 187.335938 98.132812 189.003906 95.800781 C 189.453125 95.175781 189.90625 94.554688 190.363281 93.941406 C 190.625 93.589844 191.472656 92.503906 190.40625 93.875 C 193.121094 90.386719 188.246094 85.433594 185.496094 88.964844 Z M 185.492188 88.964844 " fill-opacity="1" fill-rule="nonzero"/></g><path fill="rgb(0%, 0%, 0%)" d="M 183.464844 303.394531 C 186.003906 302.121094 188.394531 304.320312 188.480469 307.761719 C 188.609375 312.960938 183.621094 317.183594 178.757812 317.203125 C 173.421875 317.21875 168.054688 312.988281 163.863281 310.054688 C 159.238281 306.816406 154.597656 303.402344 148.480469 305.125 C 146.066406 305.804688 144.128906 307.375 143.03125 309.679688 C 141.476562 312.9375 143.863281 316.71875 147.417969 316.734375 C 148.320312 316.738281 149.242188 316.476562 150.101562 315.882812 C 150.980469 315.273438 151.984375 314.230469 151.9375 313.121094 C 151.910156 312.542969 151.660156 311.8125 150.8125 311.414062 C 149.804688 310.9375 148.601562 311.359375 148.121094 312.355469 C 147.644531 313.351562 148.070312 314.546875 149.074219 315.019531 C 149.113281 315.039062 149.148438 315.054688 149.1875 315.070312 C 146 315.726562 143.472656 312.527344 144.488281 309.871094 C 145.222656 307.941406 146.910156 306.640625 149.050781 306.070312 C 154.757812 304.542969 158.734375 307.902344 163.179688 311.015625 C 167.808594 314.257812 172.871094 317.945312 178.800781 318.039062 C 184.160156 318.125 189.726562 314.015625 189.597656 307.714844 C 189.507812 303.179688 185.992188 300.441406 182.042969 301.902344 C 179.070312 303 177.527344 307.457031 181.484375 309.058594 C 180.429688 307.648438 180.820312 304.71875 183.464844 303.394531 " fill-opacity="1" fill-rule="nonzero"/><path fill="rgb(0%, 0%, 0%)" d="M 194.761719 315.28125 C 192.964844 318.085938 188.917969 319.191406 185.238281 318.417969 C 179.578125 317.234375 175.710938 312.628906 171.324219 309.792969 C 168.292969 307.832031 164.898438 305.253906 158.707031 305.558594 C 164.242188 304.054688 168.230469 306.585938 171.683594 308.742188 C 176.039062 311.460938 179.84375 316.265625 185.394531 317.410156 C 188.695312 318.089844 192.464844 317.449219 194.761719 315.28125 " fill-opacity="1" fill-rule="nonzero"/><path fill="rgb(0%, 0%, 0%)" d="M 191.535156 303.394531 C 188.996094 302.121094 186.605469 304.320312 186.519531 307.761719 C 186.386719 312.960938 191.378906 317.183594 196.242188 317.203125 C 201.578125 317.21875 206.945312 312.988281 211.136719 310.054688 C 215.761719 306.816406 220.402344 303.402344 226.519531 305.125 C 228.933594 305.804688 230.871094 307.375 231.96875 309.679688 C 233.523438 312.9375 231.136719 316.71875 227.582031 316.734375 C 226.679688 316.738281 225.757812 316.476562 224.898438 315.882812 C 224.019531 315.273438 223.015625 314.230469 223.0625 313.121094 C 223.089844 312.542969 223.339844 311.8125 224.1875 311.414062 C 225.195312 310.9375 226.398438 311.359375 226.878906 312.355469 C 227.355469 313.351562 226.929688 314.546875 225.925781 315.019531 C 225.886719 315.039062 225.851562 315.054688 225.8125 315.070312 C 229 315.726562 231.527344 312.527344 230.511719 309.871094 C 229.777344 307.941406 228.089844 306.640625 225.949219 306.070312 C 220.242188 304.542969 216.265625 307.902344 211.820312 311.015625 C 207.191406 314.257812 202.128906 317.945312 196.199219 318.039062 C 190.839844 318.125 185.273438 314.015625 185.402344 307.714844 C 185.492188 303.179688 189.007812 300.441406 192.957031 301.902344 C 195.929688 303 197.472656 307.457031 193.515625 309.058594 C 194.574219 307.648438 194.179688 304.71875 191.535156 303.394531 " fill-opacity="1" fill-rule="nonzero"/><path fill="rgb(0%, 0%, 0%)" d="M 180.238281 315.28125 C 182.035156 318.085938 186.082031 319.191406 189.761719 318.417969 C 195.421875 317.234375 199.289062 312.628906 203.675781 309.792969 C 206.707031 307.832031 210.101562 305.253906 216.292969 305.558594 C 210.757812 304.054688 206.769531 306.585938 203.316406 308.742188 C 198.960938 311.460938 195.15625 316.265625 189.605469 317.410156 C 186.304688 318.089844 182.53125 317.449219 180.238281 315.28125 " fill-opacity="1" fill-rule="nonzero"/><g clip-path="url(#clip-3)"><path fill="rgb(0%, 0%, 0%)" d="M 138.902344 310.082031 L 138.902344 309.511719 L 112.648438 310.082031 L 138.902344 310.65625 L 138.902344 310.082031 " fill-opacity="1" fill-rule="evenodd"/></g><g clip-path="url(#clip-4)"><path fill="rgb(0%, 0%, 0%)" d="M 236.097656 310.082031 L 236.097656 309.511719 L 262.351562 310.082031 L 236.097656 310.65625 L 236.097656 310.082031 " fill-opacity="1" fill-rule="evenodd"/></g></svg>